<?xml version="1.0" encoding="UTF-8"?><svg id="Layer_2" xmlns="http://www.w3.org/2000/svg" viewBox="0 0 283.89 87.46"><defs><style>.cls-1{fill:#121212;}</style></defs><g id="Layer_1-2"><rect class="cls-1" x=".07" y="29.77" width="14.6" height="14.42"/><rect class="cls-1" y="58.62" width="14.6" height="28.84"/><rect class="cls-1" x=".07" y="0" width="14.6" height="15.35"/><rect class="cls-1" x="29.4" y="29.77" width="14.6" height="14.42"/><rect class="cls-1" x="29.33" y="58.62" width="14.6" height="28.84"/><rect class="cls-1" x="29.4" y="0" width="14.6" height="15.35"/><path class="cls-1" d="m69.26,72.07c-3.23-1.37-5.71-3.33-7.46-5.89-1.75-2.55-2.62-5.53-2.62-8.91v-1.77c0-.27.09-.5.28-.69.19-.19.42-.28.69-.28h9.19c.27,0,.5.09.69.28.19.19.28.42.28.69v1.21c0,2.15.99,3.97,2.98,5.44,1.99,1.48,4.68,2.22,8.07,2.22,2.85,0,4.97-.6,6.37-1.81,1.4-1.21,2.1-2.7,2.1-4.48,0-1.29-.43-2.38-1.29-3.27-.86-.89-2.03-1.67-3.51-2.34-1.48-.67-3.83-1.6-7.06-2.78-3.6-1.24-6.65-2.5-9.15-3.79-2.5-1.29-4.6-3.05-6.29-5.28-1.69-2.23-2.54-4.99-2.54-8.27s.83-6.05,2.5-8.47c1.67-2.42,3.98-4.27,6.94-5.57,2.96-1.29,6.37-1.94,10.24-1.94,4.09,0,7.73.73,10.93,2.18,3.2,1.45,5.7,3.48,7.5,6.09,1.8,2.61,2.7,5.63,2.7,9.07v1.21c0,.27-.09.5-.28.69-.19.19-.42.28-.69.28h-9.27c-.27,0-.5-.09-.69-.28-.19-.19-.28-.42-.28-.69v-.65c0-2.26-.93-4.18-2.78-5.77-1.86-1.59-4.4-2.38-7.62-2.38-2.53,0-4.5.54-5.93,1.61-1.43,1.08-2.14,2.55-2.14,4.44,0,1.34.42,2.47,1.25,3.39.83.92,2.07,1.73,3.71,2.46,1.64.73,4.18,1.71,7.62,2.94,3.82,1.4,6.82,2.63,8.99,3.71,2.18,1.08,4.14,2.68,5.89,4.8,1.75,2.13,2.62,4.88,2.62,8.27,0,5.05-1.86,9.05-5.57,11.98-3.71,2.93-8.74,4.4-15.08,4.4-4.3,0-8.07-.69-11.29-2.06Z"/><path class="cls-1" d="m128.94,40.86c-.19.19-.42.28-.69.28h-7.74c-.27,0-.4.13-.4.4v17.1c0,1.77.36,3.09,1.09,3.95.73.86,1.9,1.29,3.51,1.29h2.66c.27,0,.5.09.69.28.19.19.28.42.28.69v7.66c0,.59-.32.94-.97,1.05-2.26.11-3.87.16-4.84.16-4.46,0-7.8-.74-10-2.22-2.21-1.48-3.33-4.26-3.39-8.35v-21.62c0-.27-.13-.4-.4-.4h-4.6c-.27,0-.5-.09-.69-.28-.19-.19-.28-.42-.28-.69v-7.18c0-.27.09-.5.28-.69s.42-.28.69-.28h4.6c.27,0,.4-.13.4-.4v-9.6c0-.27.09-.5.28-.69s.42-.28.69-.28h9.03c.27,0,.5.09.69.28.19.19.28.42.28.69v9.6c0,.27.13.4.4.4h7.74c.27,0,.5.09.69.28.19.19.28.42.28.69v7.18c0,.27-.09.5-.28.69Z"/><path class="cls-1" d="m158.91,33.2c2.74,1.21,4.88,2.86,6.41,4.96s2.3,4.44,2.3,7.02v27.34c0,.27-.09.5-.28.69s-.42.28-.69.28h-9.44c-.27,0-.5-.09-.69-.28-.19-.19-.28-.42-.28-.69v-2.66c0-.16-.05-.27-.16-.32-.11-.05-.22,0-.32.16-2.26,2.96-5.89,4.44-10.89,4.44-4.19,0-7.58-1.02-10.16-3.06-2.58-2.04-3.87-5.05-3.87-9.03s1.45-7.35,4.36-9.64c2.9-2.28,7.04-3.43,12.42-3.43h8.23c.27,0,.4-.13.4-.4v-1.77c0-1.77-.52-4.64-1.59-5.64-1.08-.99-2.69-1.49-4.84-1.49-1.67,0-3.05.3-4.15.89-1.1.59-1.82,1.43-2.14,2.5-.16.59-.51.86-1.05.81l-9.78.19c-.65-.11-.94-.35-.89-.73.21-2.26,1.12-4.3,2.7-6.13,1.59-1.83,3.68-3.25,6.29-4.27,2.61-1.02,5.52-1.53,8.75-1.53,3.49,0,6.61.6,9.36,1.81Zm-5.08,30.61c1.61-1.24,2.42-2.82,2.42-4.76v-2.9c0-.27-.13-.4-.4-.4h-5.81c-2.42,0-4.32.46-5.69,1.37-1.37.91-2.06,2.21-2.06,3.87,0,1.45.51,2.59,1.53,3.43,1.02.83,2.39,1.25,4.11,1.25,2.31,0,4.27-.62,5.89-1.86Z"/><path class="cls-1" d="m179.76,70.9c-3.15-2.15-5.39-5.11-6.73-8.87-.92-2.69-1.37-5.86-1.37-9.52s.46-6.72,1.37-9.36c1.29-3.66,3.52-6.53,6.69-8.63,3.17-2.1,6.91-3.15,11.21-3.15s8.08,1.08,11.33,3.23c3.25,2.15,5.42,4.87,6.49,8.15.43,1.29.65,2.26.65,2.9v.16c0,.48-.27.78-.81.89l-9.28,1.37h-.16c-.48,0-.81-.27-.97-.81l-.24-1.29c-.38-1.4-1.21-2.55-2.5-3.47-1.29-.91-2.82-1.37-4.6-1.37s-3.17.43-4.36,1.29c-1.18.86-2.02,2.04-2.5,3.55-.59,1.61-.89,3.82-.89,6.61s.27,5,.81,6.61c.48,1.61,1.33,2.88,2.54,3.79,1.21.91,2.67,1.37,4.4,1.37s3.13-.44,4.4-1.33c1.26-.89,2.14-2.11,2.62-3.67.05-.11.08-.27.08-.48.05-.05.08-.13.08-.24.05-.65.43-.91,1.13-.81l9.28,1.45c.54.11.81.4.81.89,0,.43-.16,1.24-.48,2.42-1.13,3.6-3.32,6.43-6.57,8.47-3.25,2.04-7,3.06-11.25,3.06s-8.03-1.08-11.17-3.23Z"/><path class="cls-1" d="m212.6,73.2c-.19-.19-.28-.42-.28-.69V17.99c0-.27.09-.5.28-.69s.42-.28.69-.28h9.44c.27,0,.5.09.69.28.19.19.28.42.28.69v27.18c0,.16.05.26.16.28.11.03.21-.01.32-.12l10.97-12.74c.38-.38.78-.56,1.21-.56h10.73c.54,0,.81.19.81.56,0,.16-.08.38-.24.65l-10.24,12.99c-.11.22-.13.4-.08.56l12.02,25.57c.11.22.16.38.16.48,0,.43-.3.65-.89.65h-9.92c-.54,0-.91-.24-1.13-.73l-7.98-18.87c-.05-.11-.15-.17-.28-.2-.13-.03-.23.01-.28.12l-5.16,6.45c-.11.22-.16.38-.16.48v11.78c0,.27-.09.5-.28.69-.19.19-.42.28-.69.28h-9.44c-.27,0-.5-.09-.69-.28Z"/><path class="cls-1" d="m257.03,72.52c-2.69-1.02-4.77-2.45-6.25-4.27-1.48-1.83-2.22-3.9-2.22-6.21v-.81c0-.27.09-.5.28-.69s.42-.28.69-.28h8.95c.27,0,.5.09.69.28.19.19.28.42.28.69v.08c0,1.18.66,2.19,1.98,3.02,1.32.83,2.97,1.25,4.96,1.25,1.83,0,3.31-.36,4.44-1.09,1.13-.73,1.69-1.63,1.69-2.7,0-.97-.48-1.69-1.45-2.18-.97-.48-2.55-.99-4.76-1.53-2.53-.65-4.52-1.26-5.97-1.86-3.44-1.18-6.18-2.63-8.23-4.36-2.04-1.72-3.07-4.19-3.07-7.42,0-3.98,1.55-7.14,4.64-9.48,3.09-2.34,7.19-3.51,12.3-3.51,3.44,0,6.45.55,9.03,1.65,2.58,1.1,4.58,2.65,6.01,4.64,1.42,1.99,2.14,4.25,2.14,6.77,0,.27-.09.5-.28.69s-.42.28-.69.28h-8.63c-.27,0-.5-.09-.69-.28-.19-.19-.28-.42-.28-.69,0-1.18-.6-2.18-1.81-2.98-1.21-.81-2.81-1.21-4.8-1.21-1.77,0-3.23.32-4.36.97-1.13.64-1.69,1.53-1.69,2.66s.55,1.88,1.65,2.42c1.1.54,2.94,1.1,5.52,1.69.59.16,1.26.34,2.02.52.75.19,1.56.42,2.42.69,3.82,1.13,6.83,2.58,9.03,4.36,2.2,1.77,3.31,4.36,3.31,7.74,0,3.98-1.57,7.08-4.72,9.32-3.15,2.23-7.38,3.35-12.7,3.35-3.6,0-6.75-.51-9.44-1.53Z"/></g></svg>